name rise43.5482peak65.4966fall89.1036.mot
datacolumns 19
datarows 36
range 14.84663000000000 14.90494700000000
endheader
time	ground_force1_vx	ground_force1_vy	ground_force1_vz	ground_force1_px	ground_force1_py	ground_force1_pz	ground_force2_vx	ground_force2_vy	ground_force2_vz	ground_force2_px	ground_force2_py	ground_force2_pz	ground_torque1_x	ground_torque1_y	ground_torque1_z	ground_torque2_x	ground_torque2_y	ground_torque2_z	
14.84663000000000	6.03974600000000	709.43080199999997	35.90269600000000	0.19440700000000	0.00000000000000	0.07656900000000	0.00000000000000	0.00000000000000	0.00000000000000	0.00000000000000	0.00000000000000	0.00000000000000	0.00000000000000	12.84534800000000	0.00000000000000	0.00000000000000	0.00000000000000	0.00000000000000	
14.84826800000000	5.48361600000000	710.41768000000002	35.94095400000000	0.19331800000000	0.00000000000000	0.07650900000000	0.00000000000000	0.00000000000000	0.00000000000000	0.00000000000000	0.00000000000000	0.00000000000000	0.00000000000000	12.91619600000000	0.00000000000000	0.00000000000000	0.00000000000000	0.00000000000000	
14.84994100000000	4.91760500000000	711.42109500000004	35.98247900000000	0.19221700000000	0.00000000000000	0.07644900000000	0.00000000000000	0.00000000000000	0.00000000000000	0.00000000000000	0.00000000000000	0.00000000000000	0.00000000000000	12.98971100000000	0.00000000000000	0.00000000000000	0.00000000000000	0.00000000000000	
14.85161000000000	4.34194000000000	712.44070099999999	36.02715000000000	0.19110500000000	0.00000000000000	0.07639100000000	0.00000000000000	0.00000000000000	0.00000000000000	0.00000000000000	0.00000000000000	0.00000000000000	0.00000000000000	13.06580200000000	0.00000000000000	0.00000000000000	0.00000000000000	0.00000000000000	
14.85327600000000	3.75688200000000	713.47622799999999	36.07484900000000	0.18998500000000	0.00000000000000	0.07633400000000	0.00000000000000	0.00000000000000	0.00000000000000	0.00000000000000	0.00000000000000	0.00000000000000	0.00000000000000	13.14437500000000	0.00000000000000	0.00000000000000	0.00000000000000	0.00000000000000	
14.85494300000000	3.16272500000000	714.52747999999997	36.12546400000000	0.18885700000000	0.00000000000000	0.07627800000000	0.00000000000000	0.00000000000000	0.00000000000000	0.00000000000000	0.00000000000000	0.00000000000000	0.00000000000000	13.22533600000000	0.00000000000000	0.00000000000000	0.00000000000000	0.00000000000000	
14.85660900000000	2.55979700000000	715.59433000000001	36.17888800000000	0.18772200000000	0.00000000000000	0.07622300000000	0.00000000000000	0.00000000000000	0.00000000000000	0.00000000000000	0.00000000000000	0.00000000000000	0.00000000000000	13.30859000000000	0.00000000000000	0.00000000000000	0.00000000000000	0.00000000000000	
14.85827000000000	1.94845500000000	716.67671199999995	36.23502100000000	0.18658300000000	0.00000000000000	0.07616900000000	0.00000000000000	0.00000000000000	0.00000000000000	0.00000000000000	0.00000000000000	0.00000000000000	0.00000000000000	13.39404200000000	0.00000000000000	0.00000000000000	0.00000000000000	0.00000000000000	
14.85994400000000	1.32908600000000	717.77461900000003	36.29376600000000	0.18543900000000	0.00000000000000	0.07611500000000	0.00000000000000	0.00000000000000	0.00000000000000	0.00000000000000	0.00000000000000	0.00000000000000	0.00000000000000	13.48159500000000	0.00000000000000	0.00000000000000	0.00000000000000	0.00000000000000	
14.86162700000000	0.70210200000000	718.88809600000002	36.35503700000000	0.18429300000000	0.00000000000000	0.07606200000000	0.00000000000000	0.00000000000000	0.00000000000000	0.00000000000000	0.00000000000000	0.00000000000000	0.00000000000000	13.57115300000000	0.00000000000000	0.00000000000000	0.00000000000000	0.00000000000000	
14.86327600000000	0.06794400000000	720.01723300000003	36.41875200000000	0.18314500000000	0.00000000000000	0.07600900000000	0.00000000000000	0.00000000000000	0.00000000000000	0.00000000000000	0.00000000000000	0.00000000000000	0.00000000000000	13.66261700000000	0.00000000000000	0.00000000000000	0.00000000000000	0.00000000000000	
14.86495300000000	-0.57292400000000	721.16215999999997	36.48483600000000	0.18199800000000	0.00000000000000	0.07595700000000	0.00000000000000	0.00000000000000	0.00000000000000	0.00000000000000	0.00000000000000	0.00000000000000	0.00000000000000	13.75588900000000	0.00000000000000	0.00000000000000	0.00000000000000	0.00000000000000	
14.86662600000000	-1.22001500000000	722.32304099999999	36.55322500000000	0.18085200000000	0.00000000000000	0.07590500000000	0.00000000000000	0.00000000000000	0.00000000000000	0.00000000000000	0.00000000000000	0.00000000000000	0.00000000000000	13.85086900000000	0.00000000000000	0.00000000000000	0.00000000000000	0.00000000000000	
14.86827300000000	-1.87282300000000	723.50006599999995	36.62385900000000	0.17970900000000	0.00000000000000	0.07585400000000	0.00000000000000	0.00000000000000	0.00000000000000	0.00000000000000	0.00000000000000	0.00000000000000	0.00000000000000	13.94745700000000	0.00000000000000	0.00000000000000	0.00000000000000	0.00000000000000	
14.86994900000000	-2.53082200000000	724.69344500000000	36.69668800000000	0.17857000000000	0.00000000000000	0.07580200000000	0.00000000000000	0.00000000000000	0.00000000000000	0.00000000000000	0.00000000000000	0.00000000000000	0.00000000000000	14.04555200000000	0.00000000000000	0.00000000000000	0.00000000000000	0.00000000000000	
14.87161200000000	-3.19346900000000	725.90340000000003	36.77167100000000	0.17743600000000	0.00000000000000	0.07575100000000	0.00000000000000	0.00000000000000	0.00000000000000	0.00000000000000	0.00000000000000	0.00000000000000	0.00000000000000	14.14505300000000	0.00000000000000	0.00000000000000	0.00000000000000	0.00000000000000	
14.87327700000000	-3.86020500000000	727.13016100000004	36.84877400000000	0.17630800000000	0.00000000000000	0.07570000000000	0.00000000000000	0.00000000000000	0.00000000000000	0.00000000000000	0.00000000000000	0.00000000000000	0.00000000000000	14.24585500000000	0.00000000000000	0.00000000000000	0.00000000000000	0.00000000000000	
14.87495200000000	-4.53045900000000	728.37395500000002	36.92797300000000	0.17518800000000	0.00000000000000	0.07564800000000	0.00000000000000	0.00000000000000	0.00000000000000	0.00000000000000	0.00000000000000	0.00000000000000	0.00000000000000	14.34785700000000	0.00000000000000	0.00000000000000	0.00000000000000	0.00000000000000	
14.87662300000000	-5.20364800000000	729.63500399999998	37.00925400000000	0.17407700000000	0.00000000000000	0.07559700000000	0.00000000000000	0.00000000000000	0.00000000000000	0.00000000000000	0.00000000000000	0.00000000000000	0.00000000000000	14.45095300000000	0.00000000000000	0.00000000000000	0.00000000000000	0.00000000000000	
14.87826900000000	-5.87918100000000	730.91351299999997	37.09260900000000	0.17297500000000	0.00000000000000	0.07554600000000	0.00000000000000	0.00000000000000	0.00000000000000	0.00000000000000	0.00000000000000	0.00000000000000	0.00000000000000	14.55503900000000	0.00000000000000	0.00000000000000	0.00000000000000	0.00000000000000	
14.87993400000000	-6.55645700000000	732.20966499999997	37.17804200000000	0.17188300000000	0.00000000000000	0.07549400000000	0.00000000000000	0.00000000000000	0.00000000000000	0.00000000000000	0.00000000000000	0.00000000000000	0.00000000000000	14.66000900000000	0.00000000000000	0.00000000000000	0.00000000000000	0.00000000000000	
14.88161200000000	-7.23487000000000	733.52361699999994	37.26556600000000	0.17080300000000	0.00000000000000	0.07544200000000	0.00000000000000	0.00000000000000	0.00000000000000	0.00000000000000	0.00000000000000	0.00000000000000	0.00000000000000	14.76575600000000	0.00000000000000	0.00000000000000	0.00000000000000	0.00000000000000	
14.88327300000000	-7.91381100000000	734.85549000000003	37.35520100000000	0.16973500000000	0.00000000000000	0.07539000000000	0.00000000000000	0.00000000000000	0.00000000000000	0.00000000000000	0.00000000000000	0.00000000000000	0.00000000000000	14.87217200000000	0.00000000000000	0.00000000000000	0.00000000000000	0.00000000000000	
14.88493700000000	-8.59266600000000	736.20536400000003	37.44697900000000	0.16867900000000	0.00000000000000	0.07533700000000	0.00000000000000	0.00000000000000	0.00000000000000	0.00000000000000	0.00000000000000	0.00000000000000	0.00000000000000	14.97915000000000	0.00000000000000	0.00000000000000	0.00000000000000	0.00000000000000	
14.88661800000000	-9.27082300000000	737.57327199999997	37.54093800000000	0.16763700000000	0.00000000000000	0.07528400000000	0.00000000000000	0.00000000000000	0.00000000000000	0.00000000000000	0.00000000000000	0.00000000000000	0.00000000000000	15.08658000000000	0.00000000000000	0.00000000000000	0.00000000000000	0.00000000000000	
14.88827100000000	-9.94767000000000	738.95919500000002	37.63712700000000	0.16660900000000	0.00000000000000	0.07523100000000	0.00000000000000	0.00000000000000	0.00000000000000	0.00000000000000	0.00000000000000	0.00000000000000	0.00000000000000	15.19435200000000	0.00000000000000	0.00000000000000	0.00000000000000	0.00000000000000	
14.88994500000000	-10.62259700000000	740.36305400000003	37.73560100000000	0.16559400000000	0.00000000000000	0.07517800000000	0.00000000000000	0.00000000000000	0.00000000000000	0.00000000000000	0.00000000000000	0.00000000000000	0.00000000000000	15.30235600000000	0.00000000000000	0.00000000000000	0.00000000000000	0.00000000000000	
14.89162800000000	-11.29499900000000	741.78470600000003	37.83642400000000	0.16459500000000	0.00000000000000	0.07512500000000	0.00000000000000	0.00000000000000	0.00000000000000	0.00000000000000	0.00000000000000	0.00000000000000	0.00000000000000	15.41047900000000	0.00000000000000	0.00000000000000	0.00000000000000	0.00000000000000	
14.89327600000000	-11.96427500000000	743.22394199999997	37.93966900000000	0.16361000000000	0.00000000000000	0.07507100000000	0.00000000000000	0.00000000000000	0.00000000000000	0.00000000000000	0.00000000000000	0.00000000000000	0.00000000000000	15.51861000000000	0.00000000000000	0.00000000000000	0.00000000000000	0.00000000000000	
14.89495300000000	-12.62983200000000	744.68047799999999	38.04541300000000	0.16264000000000	0.00000000000000	0.07501700000000	0.00000000000000	0.00000000000000	0.00000000000000	0.00000000000000	0.00000000000000	0.00000000000000	0.00000000000000	15.62663500000000	0.00000000000000	0.00000000000000	0.00000000000000	0.00000000000000	
14.89661400000000	-13.29108500000000	746.15395400000000	38.15374100000000	0.16168500000000	0.00000000000000	0.07496300000000	0.00000000000000	0.00000000000000	0.00000000000000	0.00000000000000	0.00000000000000	0.00000000000000	0.00000000000000	15.73443900000000	0.00000000000000	0.00000000000000	0.00000000000000	0.00000000000000	
14.89826900000000	-13.94745800000000	747.64392699999996	38.26474300000000	0.16074500000000	0.00000000000000	0.07490800000000	0.00000000000000	0.00000000000000	0.00000000000000	0.00000000000000	0.00000000000000	0.00000000000000	0.00000000000000	15.84190700000000	0.00000000000000	0.00000000000000	0.00000000000000	0.00000000000000	
14.89994600000000	-14.59838700000000	749.14987499999995	38.37851400000000	0.15982000000000	0.00000000000000	0.07485400000000	0.00000000000000	0.00000000000000	0.00000000000000	0.00000000000000	0.00000000000000	0.00000000000000	0.00000000000000	15.94892300000000	0.00000000000000	0.00000000000000	0.00000000000000	0.00000000000000	
14.90161800000000	-15.24331800000000	750.67118400000004	38.49515200000000	0.15891000000000	0.00000000000000	0.07479900000000	0.00000000000000	0.00000000000000	0.00000000000000	0.00000000000000	0.00000000000000	0.00000000000000	0.00000000000000	16.05537100000000	0.00000000000000	0.00000000000000	0.00000000000000	0.00000000000000	
14.90327400000000	-15.88171000000000	752.20715499999994	38.61475800000000	0.15801300000000	0.00000000000000	0.07474400000000	0.00000000000000	0.00000000000000	0.00000000000000	0.00000000000000	0.00000000000000	0.00000000000000	0.00000000000000	16.16113100000000	0.00000000000000	0.00000000000000	0.00000000000000	0.00000000000000	
14.90494700000000	-16.51303700000000	753.75699699999996	38.73743600000000	0.15713100000000	0.00000000000000	0.07468900000000	0.00000000000000	0.00000000000000	0.00000000000000	0.00000000000000	0.00000000000000	0.00000000000000	0.00000000000000	16.26608600000000	0.00000000000000	0.00000000000000	0.00000000000000	0.00000000000000	
